<?xml version="1.0" standalone="no"?>
<!DOCTYPE svg PUBLIC "-//W3C//DTD SVG 20010904//EN"
 "http://www.w3.org/TR/2001/REC-SVG-20010904/DTD/svg10.dtd">
<svg version="1.0" xmlns="http://www.w3.org/2000/svg"
 width="300.000000pt" height="300.000000pt" viewBox="0 0 300.000000 300.000000"
 preserveAspectRatio="xMidYMid meet">
<metadata>
Created by potrace 1.14, written by Peter Selinger 2001-2017
</metadata>
<g transform="translate(0.000000,300.000000) scale(0.100000,-0.100000)"
fill="#000000" stroke="none">
<path d="M1259 2664 c-49 -31 -74 -81 -74 -148 1 -69 20 -112 84 -194 37 -47
212 -192 231 -192 19 0 194 145 231 192 64 82 83 125 84 194 0 48 -5 68 -25
96 -35 52 -68 68 -140 68 -61 0 -64 -1 -106 -44 l-44 -43 -44 43 c-42 43 -45
44 -107 44 -41 0 -73 -6 -90 -16z"/>
<path d="M507 2274 c-29 -28 -48 -81 -74 -194 -14 -64 -17 -149 -18 -585 -2
-336 -6 -545 -15 -613 -7 -56 -10 -117 -7 -135 7 -48 -18 -92 -74 -128 -53
-34 -57 -43 -32 -71 15 -17 13 -18 -73 -18 -90 0 -122 -9 -110 -29 5 -7 53
-11 138 -11 115 0 135 -3 164 -21 19 -11 34 -22 34 -24 0 -2 -26 -12 -57 -22
-82 -25 -92 -42 -41 -73 22 -13 28 -21 17 -24 -8 -3 -41 -14 -73 -25 -33 -12
-63 -26 -67 -33 -16 -26 10 -30 63 -10 29 10 76 25 104 31 46 11 56 10 89 -6
l37 -19 -41 -19 c-23 -10 -41 -23 -41 -30 0 -7 -16 -42 -35 -79 -20 -39 -35
-82 -35 -102 0 -30 3 -34 25 -34 21 0 25 5 25 28 1 72 73 168 155 207 77 36
193 36 270 0 82 -39 154 -135 155 -207 0 -24 4 -28 30 -28 28 0 30 2 24 28
-26 119 -86 203 -178 249 l-39 20 43 15 c24 8 53 26 63 41 19 24 19 27 3 51
-30 46 -68 58 -175 55 -73 -2 -110 2 -154 16 l-58 19 50 22 c88 39 68 51 -112
61 l-118 6 31 30 c17 17 38 43 46 59 11 21 22 28 44 28 48 0 174 30 189 45 22
22 -8 32 -198 61 l-33 5 7 67 c27 254 188 519 411 678 96 69 292 159 308 143
3 -2 16 -77 30 -166 41 -261 93 -473 116 -473 4 0 11 7 14 16 10 26 7 280 -5
425 -6 73 -12 157 -13 184 l-1 50 57 5 57 5 5 -60 c3 -33 8 -132 11 -220 7
-223 33 -415 56 -415 21 0 44 168 59 440 5 96 10 193 10 215 l0 40 58 -5 57
-5 -1 -50 c-1 -27 -7 -111 -13 -184 -12 -145 -15 -399 -5 -425 11 -29 22 -17
43 47 28 84 54 210 86 407 15 91 28 167 31 169 8 8 90 -21 168 -60 302 -150
518 -448 551 -761 6 -54 5 -68 -6 -68 -8 0 -58 -7 -112 -15 -98 -15 -137 -28
-137 -45 0 -13 85 -37 156 -45 90 -9 102 -13 109 -35 4 -11 22 -35 41 -54 l34
-33 -128 -6 c-189 -9 -213 -23 -113 -63 l53 -22 -53 -18 c-41 -14 -77 -17
-150 -15 -107 3 -145 -9 -175 -55 -16 -24 -16 -27 3 -51 10 -15 39 -33 63 -41
l43 -15 -39 -20 c-92 -46 -152 -130 -178 -249 -6 -26 -4 -28 24 -28 26 0 30 4
30 28 0 41 46 126 88 163 58 51 107 69 193 69 42 0 91 -5 110 -12 91 -31 172
-121 185 -204 5 -38 10 -44 30 -44 21 0 24 5 24 33 0 19 -14 63 -32 98 -18 35
-33 70 -33 78 0 15 -15 25 -60 42 l-30 11 41 20 41 21 89 -27 c49 -15 97 -29
107 -33 12 -4 17 0 17 14 0 15 -12 25 -43 37 -23 9 -46 16 -49 16 -4 0 -19 5
-34 10 l-28 11 32 19 c51 31 41 46 -45 74 -29 10 -53 19 -53 21 0 2 15 13 34
24 29 18 49 21 163 21 71 0 132 3 136 6 3 3 3 12 0 20 -4 11 -28 14 -101 14
-91 0 -94 1 -79 18 24 27 21 38 -17 61 -76 48 -82 60 -89 183 -3 62 -11 137
-17 167 -7 38 -7 159 0 399 15 467 -4 730 -62 865 -37 86 -75 95 -184 43 -106
-50 -246 -160 -499 -392 l-100 -92 -55 10 c-71 12 -309 12 -380 0 l-54 -10
-106 97 c-241 221 -389 337 -494 387 -85 41 -115 42 -149 8z m231 -277 c57
-34 313 -245 319 -262 1 -5 -23 -21 -55 -35 -129 -56 -278 -176 -401 -325
l-33 -40 5 270 c5 269 19 386 48 422 16 19 50 10 117 -30z m1649 13 c26 -55
54 -484 39 -603 l-7 -57 -54 64 c-107 126 -259 243 -381 293 -24 10 -44 20
-44 23 0 7 176 159 246 213 74 56 152 99 174 95 8 -2 20 -15 27 -28z m-1803
-1566 c37 -13 46 -20 40 -33 -9 -20 -9 -42 0 -61 5 -13 -5 -14 -71 -10 -43 3
-91 12 -107 21 l-28 16 53 19 c44 16 54 24 53 42 -1 26 0 26 60 6z m1892 -6
c-1 -18 9 -26 53 -42 l53 -19 -28 -16 c-23 -13 -184 -33 -184 -23 0 1 6 11 12
22 10 16 10 24 0 41 -16 25 -16 25 34 43 54 20 61 19 60 -6z"/>
<path d="M937 1083 c-10 -17 -26 -122 -32 -208 -7 -94 8 -277 26 -332 15 -45
36 -41 51 10 18 58 18 436 0 495 -11 38 -33 55 -45 35z"/>
<path d="M2027 1083 c-10 -17 -26 -122 -32 -208 -7 -94 8 -277 26 -332 15 -45
36 -41 51 10 18 60 18 448 0 500 -12 34 -34 48 -45 30z"/>
<path d="M1236 349 c-10 -52 36 -109 88 -109 32 0 118 33 146 56 l30 26 30
-26 c29 -24 114 -56 149 -56 28 0 78 37 85 63 8 32 -10 80 -27 74 -7 -2 -11
-17 -9 -36 2 -18 -2 -39 -8 -47 -27 -32 -141 -4 -184 45 -25 28 -47 27 -77 -5
-31 -34 -78 -54 -127 -54 -50 0 -66 19 -59 65 5 29 3 35 -12 35 -13 0 -20 -10
-25 -31z"/>
<path d="M593 123 c-9 -3 -13 -26 -13 -64 0 -56 1 -59 25 -59 23 0 25 3 25 49
0 72 -7 87 -37 74z"/>
<path d="M787 124 c-4 -4 -7 -34 -7 -66 0 -52 2 -58 20 -58 19 0 21 5 18 62
-3 57 -14 79 -31 62z"/>
<path d="M2187 123 c-4 -3 -7 -33 -7 -65 0 -55 1 -58 25 -58 24 0 25 3 25 53
0 59 -21 93 -43 70z"/>
<path d="M2382 118 c-7 -7 -12 -36 -12 -65 0 -50 1 -53 25 -53 25 0 26 1 23
62 -3 62 -14 78 -36 56z"/>
</g>
</svg>
